<svg width="334" height="77" viewBox="0 0 334 77" fill="none" xmlns="http://www.w3.org/2000/svg">
<line x1="62.4266" y1="31.5296" x2="22.8286" y2="71.1276" stroke="#FF6E4A" stroke-width="8"/>
<line x1="52.4266" y1="21.5296" x2="12.8286" y2="61.1276" stroke="#FF6E4A" stroke-width="8"/>
<line x1="42.4266" y1="11.5296" x2="2.82859" y2="51.1276" stroke="#FF6E4A" stroke-width="8"/>
<path d="M78.0301 60.32V52.96H109.39C111.182 52.96 112.078 51.9573 112.078 49.952C112.078 47.9893 111.182 47.008 109.39 47.008H89.1021C85.3048 47.008 82.4248 46.1547 80.4621 44.448C78.4995 42.6987 77.5181 40.2027 77.5181 36.96C77.5181 33.6747 78.4995 31.1573 80.4621 29.408C82.4675 27.616 85.3475 26.72 89.1021 26.72H118.286V34.08H89.5501C87.7155 34.08 86.7981 34.976 86.7981 36.768C86.7981 37.664 87.0541 38.368 87.5661 38.88C88.0781 39.392 88.7395 39.648 89.5501 39.648H111.054C114.382 39.648 116.921 40.5227 118.67 42.272C120.462 43.9787 121.358 46.4747 121.358 49.76C121.358 53.088 120.462 55.6907 118.67 57.568C116.878 59.4027 114.339 60.32 111.054 60.32H78.0301ZM143.702 60.32C137.984 60.32 133.526 58.912 130.326 56.096C127.126 53.2373 125.526 49.056 125.526 43.552C125.526 38.0053 127.126 33.824 130.326 31.008C133.526 28.1493 137.984 26.72 143.702 26.72H155.542C161.259 26.72 165.718 28.1493 168.918 31.008C172.118 33.824 173.718 38.0053 173.718 43.552C173.718 49.056 172.118 53.2373 168.918 56.096C165.718 58.912 161.259 60.32 155.542 60.32H143.702ZM143.702 52.96H155.542C158.315 52.96 160.427 52.192 161.878 50.656C163.371 49.12 164.118 46.752 164.118 43.552C164.118 40.3093 163.371 37.92 161.878 36.384C160.427 34.848 158.315 34.08 155.542 34.08H143.702C140.928 34.08 138.795 34.848 137.302 36.384C135.851 37.92 135.126 40.3093 135.126 43.552C135.126 46.752 135.851 49.12 137.302 50.656C138.795 52.192 140.928 52.96 143.702 52.96ZM179.493 60V14.24H188.773V60H179.493ZM204.574 60C201.118 60 198.472 59.1253 196.638 57.376C194.803 55.6267 193.886 53.1307 193.886 49.888C193.886 46.688 194.803 44.2133 196.638 42.464C198.472 40.7147 201.118 39.84 204.574 39.84H229.15V38.304C229.15 35.7013 227.87 34.4 225.31 34.4H198.174V27.04H227.742C231.624 27.04 234.376 27.936 235.998 29.728C237.619 31.4773 238.43 33.952 238.43 37.152V60H204.574ZM206.238 52.64H229.15V47.2H206.238C205.427 47.2 204.787 47.456 204.318 47.968C203.891 48.4373 203.678 49.0773 203.678 49.888C203.678 50.6987 203.891 51.36 204.318 51.872C204.787 52.384 205.427 52.64 206.238 52.64ZM245.493 60V27.04H270.709C274.421 27.04 277.152 27.9787 278.901 29.856C280.65 31.6907 281.525 34.1227 281.525 37.152V44H272.117V38.304C272.117 35.744 270.837 34.464 268.277 34.464H254.901V60H245.493ZM295.386 60C291.93 60 289.285 59.1253 287.45 57.376C285.615 55.6267 284.698 53.1307 284.698 49.888C284.698 46.688 285.615 44.2133 287.45 42.464C289.285 40.7147 291.93 39.84 295.386 39.84H319.962V38.304C319.962 35.7013 318.682 34.4 316.122 34.4H288.986V27.04H318.554C322.437 27.04 325.189 27.936 326.81 29.728C328.431 31.4773 329.242 33.952 329.242 37.152V60H295.386ZM297.05 52.64H319.962V47.2H297.05C296.239 47.2 295.599 47.456 295.13 47.968C294.703 48.4373 294.49 49.0773 294.49 49.888C294.49 50.6987 294.703 51.36 295.13 51.872C295.599 52.384 296.239 52.64 297.05 52.64Z" fill="#F2F2F2"/>
</svg>
